Coordinates
version=1
nRows=13
nColumns=38
inDegrees=no

Units are S.I. units (second, meters, Newtons, ...)
If the header above contains a line with 'inDegrees', this indicates whether rotational values are in degrees (yes) or radians (no).

endheader
time	pelvis_tilt	pelvis_list	pelvis_rotation	pelvis_tx	pelvis_ty	pelvis_tz	hip_flexion_r	hip_adduction_r	hip_rotation_r	knee_angle_r	ankle_angle_r	subtalar_angle_r	mtp_angle_r	hip_flexion_l	hip_adduction_l	hip_rotation_l	knee_angle_l	ankle_angle_l	subtalar_angle_l	mtp_angle_l	lumbar_extension	lumbar_bending	lumbar_rotation	arm_flex_r	arm_add_r	arm_rot_r	elbow_flex_r	pro_sup_r	wrist_flex_r	wrist_dev_r	arm_flex_l	arm_add_l	arm_rot_l	elbow_flex_l	pro_sup_l	wrist_flex_l	wrist_dev_l
0	0.187257	1.4982	-1.62302	0.676066	1.87717	0.933845	-0.0824302	-0.0845242	-0.003673	0.106445	0.0693293	0	0	-0.154015	0.032199	-0.19791	0	0.0501456	0	0	-0.163264	-0.0103266	-0.0507207	0.282613	-0.274453	-1.51107	0	0.475742	0	0	-0.0333453	-0.306264	0.390808	0.683915	1.42081	0	0
0.01	0.178245	1.49145	-1.61521	0.675203	1.87644	0.933966	-0.0901745	-0.0822822	-0.0039274	0.107476	0.0703748	0	0	-0.161951	0.0303194	-0.198738	0	0.0531246	0	0	-0.165575	-0.0113092	-0.0615968	0.0620652	-0.245076	0.438561	0.598916	1.5708	0	0	-0.0426243	-0.305165	0.373713	0.685786	1.43129	0	0
0.02	0.164226	1.49205	-1.60439	0.675507	1.87542	0.933747	-0.0901473	-0.0830128	-0.0049173	0.106464	0.0713411	0	0	-0.171835	0.0325875	-0.196968	0	0.0538908	0	0	-0.164054	-0.00976838	-0.0606882	0.0612065	-0.250114	0.451915	0.603118	1.5708	0	0	-0.0447436	-0.303038	0.372039	0.68816	1.43279	0	0
0.03	0.163556	1.4904	-1.60462	0.675657	1.87506	0.933849	-0.091805	-0.0831705	-0.00376587	0.10712	0.0713066	0	0	-0.169605	0.0320436	-0.198344	0	0.0578265	0	0	-0.166086	-0.00982778	-0.0599558	0.0599952	-0.251246	0.452542	0.603027	1.5708	0	0	-0.045377	-0.302287	0.371345	0.69006	1.4395	0	0
0.04	0.166266	1.49163	-1.6076	0.675783	1.87464	0.933838	-0.0903656	-0.0833277	-0.00312707	0.108029	0.070911	0	0	-0.163215	0.0313648	-0.19856	0	0.0619014	0	0	-0.166007	-0.0119371	-0.0559457	0.0880929	-0.208979	-0.0166769	0.531855	0.154452	0	0	-0.0432296	-0.302795	0.37647	0.693594	1.44482	0	0
0.05	0.157209	1.4877	-1.59855	0.676054	1.87446	0.933988	-0.0946826	-0.0828557	-0.00297053	0.108391	0.0709366	0	0	-0.160218	0.0295675	-0.203579	0.00978256	0.0702424	0	0	-0.16993	-0.0091611	-0.0596553	0.0570043	-0.2524	0.449805	0.600568	1.57025	0	0	-0.0461143	-0.300993	0.370511	0.698798	1.448	0	0
0.06	0.152037	1.48649	-1.59331	0.676213	1.87421	0.934021	-0.0961481	-0.082404	-0.00238552	0.108622	0.0706045	0	0	-0.151992	0.0270457	-0.212523	0.0299644	0.0812512	0	0	-0.171802	-0.00870423	-0.0600114	0.0558079	-0.253223	0.453391	0.598072	1.5708	0	0	-0.0464936	-0.300947	0.370575	0.702853	1.44791	0	0
0.07	0.14159	1.48538	-1.58279	0.676346	1.87394	0.934016	-0.0976798	-0.0814117	-0.0017545	0.108537	0.0701881	0	0	-0.143141	0.023728	-0.221721	0.051334	0.0928937	0	0	-0.1736	-0.00770038	-0.0606239	0.0549523	-0.254377	0.460715	0.595288	1.5708	0	0	-0.0474079	-0.301829	0.371369	0.706427	1.44666	0	0
0.08	0.12736	1.48445	-1.56836	0.676514	1.87365	0.933963	-0.0990206	-0.080012	-0.00128801	0.108649	0.0700846	0	0	-0.134084	0.0199976	-0.230026	0.0727864	0.10433	0	0	-0.175051	-0.00636293	-0.0606717	0.0532473	-0.254208	0.455837	0.595393	1.5708	0	0	-0.0479077	-0.302714	0.37231	0.709229	1.4454	0	0
0.09	0.112206	1.48336	-1.55311	0.676725	1.87334	0.933899	-0.100543	-0.0785631	-0.000805307	0.108731	0.0701193	0	0	-0.125868	0.0162159	-0.237337	0.0929342	0.114786	0	0	-0.176449	-0.00497699	-0.0599666	0.0511066	-0.254831	0.454559	0.59442	1.5708	0	0	-0.0477234	-0.303206	0.372668	0.710733	1.44519	0	0
0.1	0.0919184	1.48214	-1.53301	0.676857	1.87305	0.933808	-0.102402	-0.0765267	0.000470764	0.108174	0.0697656	0	0	-0.117799	0.0116871	-0.24515	0.113228	0.12547	0	0	-0.178047	-0.00311685	-0.0592441	0.0497437	-0.25566	0.457818	0.591281	1.5708	0	0	-0.0478485	-0.304442	0.373265	0.711654	1.44515	0	0
0.11	0.0665226	1.48112	-1.50821	0.676913	1.87279	0.933664	-0.103728	-0.0739293	0.00218941	0.107918	0.069584	0	0	-0.109824	0.00672323	-0.252042	0.132711	0.135561	0	0	-0.179446	-0.000871407	-0.0580134	0.0481106	-0.255153	0.450672	0.591004	1.5708	0	0	-0.0477768	-0.30586	0.373638	0.710936	1.4459	0	0
0.12	0.038901	1.48006	-1.4814	0.67692	1.87256	0.933506	-0.105082	-0.0710298	0.00429523	0.107394	0.0693975	0	0	-0.102259	0.00151505	-0.25841	0.151224	0.144947	0	0	-0.180869	0.00156937	-0.0568565	0.046684	-0.255379	0.448366	0.591057	1.56624	0	0	-0.0480133	-0.307539	0.373927	0.712382	1.44586	0	0
